<?xml version="1.0" ?><svg style="enable-background:new 0 0 512 512;" version="1.1" viewBox="0 0 512 512" xml:space="preserve" xmlns="http://www.w3.org/2000/svg" xmlns:xlink="http://www.w3.org/1999/xlink"><style type="text/css">
	.st0{fill:#293F44;}
	.st1{fill:#6099A8;}
	.st2{fill:#47707A;}
	.st3{fill:#FFFFFF;}
</style><g id="Edges"/><g id="Background_Bottom"><g><path class="st0" d="M492.3,443.1c0,34.2-27.7,61.9-61.9,61.9H80.7c-34.2,0-61.9-27.7-61.9-61.9V93.4c0-34.2,27.7-61.9,61.9-61.9    h349.7c34.2,0,61.9,27.7,61.9,61.9V443.1z"/></g></g><g id="Background"><path class="st1" d="M492.3,418.4c0,34.2-27.7,61.9-61.9,61.9H80.7c-34.2,0-61.9-27.7-61.9-61.9V68.6c0-34.2,27.7-61.9,61.9-61.9   h349.7c34.2,0,61.9,27.7,61.9,61.9V418.4z"/></g><g id="Shadow"><path class="st2" d="M492.3,185l-42.8-42.8l0,0h-261l-124,222h0.1l116.1,116.1h249.7c34.2,0,61.9-27.7,61.9-61.9v-7.2l0,0V185z"/></g><g id="Symbol"><g><path class="st3" d="M188.5,142.1l-124,222h261l124-222H188.5z M250.8,310.4c-7.8,14.4-21,20-37,19.6c-8.1-0.2-16.1-1.4-23.2-5.9    c-3.7-2.3-6.5-5.5-9.5-8.9c0,2.3,0,14.9,0,14.9h-20.8l0.1-137.5h21.5c0,16.5-0.1,32.9-0.1,49.4c0.4-0.2,0.8-0.3,1.2-0.5    c16.2-22.2,55.3-18.3,68.3,6.8C261.9,268.8,261.9,289.9,250.8,310.4z M360.9,297.2c-5.3,19.5-18.1,30.5-38.2,32.5    c-8.7,0.9-17.2,0.1-25.4-3c-12.7-4.8-21.1-13.9-25.5-26.5c-4.9-14-4.7-28.1,0-42.1c6.4-19.5,22.6-30.7,44-31.1    c10.2-0.2,19.9,1.4,28.9,6.7c8.5,5,14,12.3,16.5,21.8c0.2,0.9,0.9,5.7,0.9,7.2c0,0,0,0,0,0h-19.2c-1.1-2.9-2.6-5.7-4.6-8.3    c-11.6-15.5-36-13.9-45.2,3c-3.6,6.7-4.7,13.8-4.8,23.7c0,5.6,1.3,13.4,5.7,20.5c5.3,8.6,13.4,12.9,23.9,12.7    c10.9-0.2,18.7-5.3,23.3-14.5c1.5-3,2.6-6.2,3.3-9.3H362C362,291.7,361.1,296.2,360.9,297.2z"/><path class="st3" d="M233.9,254.1c-10.8-15.5-33.7-13.9-42.3,3c-3.4,6.7-4.4,13.8-4.5,23.7c0,5.6,1.2,13.4,5.4,20.5    c5,8.6,12.5,12.9,22.4,12.7c10.2-0.2,17.5-5.3,21.8-14.5c4.3-9.3,4.9-19,3.5-29C239.4,264.6,237.4,259,233.9,254.1z"/></g></g></svg>